<svg width="24" height="24" viewBox="0 0 24 24" fill="none" xmlns="http://www.w3.org/2000/svg">
<g id="Iconsax/Bold/eyeslash">
<path id="Vector" d="M21.2714 9.17848C20.9814 8.71848 20.6714 8.28848 20.3514 7.88848C20.2641 7.77781 20.1544 7.68685 20.0295 7.62157C19.9046 7.55628 19.7673 7.51813 19.6266 7.50963C19.4859 7.50113 19.345 7.52247 19.2131 7.57225C19.0813 7.62203 18.9614 7.69913 18.8614 7.79848L15.8614 10.7985C16.0814 11.4585 16.1214 12.2185 15.9214 13.0085C15.7427 13.7076 15.3792 14.3458 14.8689 14.856C14.3587 15.3662 13.7205 15.7298 13.0214 15.9085C12.2314 16.1085 11.4714 16.0685 10.8114 15.8485L8.35141 18.3085C7.85141 18.8085 8.01141 19.6885 8.68141 19.9485C9.75141 20.3585 10.8614 20.5685 12.0014 20.5685C13.7814 20.5685 15.5114 20.0485 17.0914 19.0785C18.7014 18.0785 20.1514 16.6085 21.3214 14.7385C22.2714 13.2285 22.2214 10.6885 21.2714 9.17848ZM14.0204 9.98048L9.98041 14.0205C9.47041 13.5005 9.14041 12.7805 9.14041 12.0005C9.14041 10.4305 10.4204 9.14048 12.0004 9.14048C12.7804 9.14048 13.5004 9.47048 14.0204 9.98048Z" fill="#7F7F7F"/>
<path id="Vector_2" d="M18.25 5.74969L14.86 9.13969C14.486 8.76232 14.0403 8.46353 13.5492 8.26088C13.058 8.05824 12.5313 7.95584 12 7.95969C9.76 7.95969 7.96 9.76969 7.96 11.9997C7.96 13.1197 8.41 14.1297 9.14 14.8597L5.76 18.2497H5.75C4.64 17.3497 3.62 16.1997 2.75 14.8397C1.75 13.2697 1.75 10.7197 2.75 9.14969C3.91 7.32969 5.33 5.89969 6.91 4.91969C8.49 3.95969 10.22 3.42969 12 3.42969C14.23 3.42969 16.39 4.24969 18.25 5.74969ZM14.858 11.9977C14.858 13.5677 13.578 14.8577 11.998 14.8577C11.938 14.8577 11.888 14.8577 11.828 14.8377L14.838 11.8277C14.858 11.8877 14.858 11.9377 14.858 11.9977Z" fill="#7F7F7F"/>
<path id="Vector_3" d="M21.7689 2.229C21.4689 1.929 20.9789 1.929 20.6789 2.229L2.22891 20.689C1.92891 20.989 1.92891 21.479 2.22891 21.779C2.3001 21.8499 2.38468 21.906 2.47775 21.944C2.57081 21.9819 2.6705 22.001 2.771 22.0001C2.8715 21.9991 2.97081 21.9782 3.06316 21.9386C3.15551 21.8989 3.23904 21.8413 3.30891 21.769L21.7689 3.309C22.0789 3.009 22.0789 2.529 21.7689 2.229Z" fill="#7F7F7F"/>
</g>
</svg>
