<svg xmlns="http://www.w3.org/2000/svg" width="200" height="200" viewBox="0 0 200 200" fill="none">
  <path fill-rule="evenodd" clip-rule="evenodd" d="M162.491 54.974C161.028 54.974 159.843 53.769 159.843 52.282C159.843 50.795 161.029 49.59 162.491 49.59C163.954 49.59 165.139 50.795 165.139 52.282C165.139 53.769 163.954 54.974 162.491 54.974ZM50.0409 119.519H35.8909C28.2759 119.519 22.0449 125.852 22.0449 133.594C22.0449 141.335 28.2759 147.669 35.8909 147.669H155.534C167.865 147.669 177.954 137.413 177.954 124.878C177.954 112.343 167.865 102.087 155.534 102.087C150.32 102.087 146.054 97.75 146.054 92.45C146.054 87.15 150.32 82.814 155.534 82.814H166.943C172.364 82.814 176.798 78.305 176.798 72.795C176.798 67.285 172.363 62.776 166.943 62.776H152.516C150.406 62.776 148.679 61.021 148.679 58.875C148.679 56.73 150.406 54.975 152.516 54.975H155.059C156.516 54.975 157.707 53.763 157.707 52.283C157.707 50.803 156.515 49.591 155.059 49.591H145.528C145.528 49.591 141.886 49.591 138.371 49.591C134.857 49.591 134.465 53.812 125.587 53.812C111.863 53.812 118.725 53.812 105.002 53.812C103.102 53.812 101.547 55.393 101.547 57.325C101.547 59.257 103.102 60.838 105.002 60.838H108.32C111.074 60.838 113.327 63.129 113.327 65.928C113.327 68.727 111.073 71.017 108.32 71.017H98.3319C84.8459 71.017 82.9409 74.6 80.5789 81.726C78.2169 88.851 65.9499 89.426 65.9499 89.426H49.1769C45.0269 89.426 41.6319 92.877 41.6319 97.096C41.6319 101.314 45.0269 104.766 49.1769 104.766H50.0399C54.0319 104.766 57.2969 108.086 57.2969 112.143C57.2979 116.199 54.0319 119.519 50.0409 119.519Z" fill="#E0E8F5"/>
  <path fill-rule="evenodd" clip-rule="evenodd" d="M75.7089 41.739H148.039C153.686 41.739 158.306 46.359 158.306 52.005V151.428C158.306 157.075 153.686 161.695 148.039 161.695H75.7089C70.0619 161.695 65.4419 157.075 65.4419 151.428V52.006C65.4419 46.359 70.0619 41.739 75.7089 41.739Z" fill="#002D5D"/>
  <path fill-rule="evenodd" clip-rule="evenodd" d="M75.709 44.641H148.039C152.09 44.641 155.404 47.955 155.404 52.006V151.429C155.404 155.48 152.09 158.794 148.039 158.794H75.709C71.658 158.794 68.344 155.48 68.344 151.429V52.006C68.344 47.955 71.658 44.641 75.709 44.641Z" fill="#7F7F7F"/>
  <path d="M141.781 44.06L70.0237 49.7238L78.0942 151.973L149.851 146.309L141.781 44.06Z" fill="white"/>
  <path fill-rule="evenodd" clip-rule="evenodd" d="M74.2419 55.917L138.603 50.851L139.512 62.068L75.1509 67.134L74.2419 55.917Z" fill="#D0AA66"/>
  <path fill-rule="evenodd" clip-rule="evenodd" d="M82.6661 137.228L90.8411 136.585L91.4841 144.76L83.3091 145.403L82.6661 137.228ZM81.6211 123.954L89.7961 123.311L90.4401 131.486L82.2651 132.129L81.6211 123.954ZM80.5761 110.68L88.7511 110.037L89.3951 118.212L81.2201 118.856L80.5761 110.68ZM79.5311 97.406L87.7061 96.762L88.3501 104.937L80.1751 105.581L79.5311 97.406ZM78.4861 84.132L86.6611 83.489L87.3051 91.664L79.1301 92.307L78.4861 84.132ZM79.0851 70.978L136.441 66.514C137.19 66.456 137.911 67.018 137.911 67.769V67.77C137.911 68.521 137.405 69.181 136.656 69.24L79.3001 73.704C78.5511 73.762 77.8311 73.201 77.8311 72.449V72.448C77.8291 71.697 78.3351 71.037 79.0851 70.978ZM97.2871 136.377L141.665 132.884C142.414 132.825 143.075 133.39 143.135 134.139V134.14C143.194 134.889 142.629 135.55 141.88 135.609L97.5021 139.102C96.7521 139.161 96.0911 138.596 96.0331 137.847C95.9731 137.097 96.5381 136.435 97.2871 136.377ZM97.6691 141.231C96.9191 141.29 96.3551 141.951 96.4141 142.701C96.4731 143.45 97.1351 144.015 97.8841 143.956L124.538 141.858C125.288 141.799 125.852 141.138 125.793 140.389C125.734 139.639 125.072 139.075 124.323 139.134L97.6691 141.231ZM96.2421 123.103L140.62 119.61C141.37 119.551 142.031 120.116 142.09 120.865C142.149 121.615 141.585 122.276 140.835 122.334L96.4571 125.827C95.7071 125.886 95.0461 125.321 94.9871 124.572V124.571C94.9281 123.823 95.4931 123.162 96.2421 123.103ZM96.6241 127.957C95.8751 128.016 95.3101 128.677 95.3691 129.427C95.4281 130.177 96.0891 130.741 96.8391 130.682L123.493 128.584C124.243 128.525 124.807 127.863 124.748 127.114V127.113C124.689 126.364 124.028 125.799 123.278 125.858L96.6241 127.957ZM95.1971 109.829L139.575 106.336C140.325 106.277 140.986 106.842 141.045 107.591C141.104 108.341 140.539 109.002 139.79 109.061L95.4121 112.554C94.6621 112.613 94.0011 112.048 93.9421 111.299C93.8831 110.549 94.4481 109.888 95.1971 109.829ZM95.5791 114.683C94.8301 114.742 94.2651 115.404 94.3241 116.153C94.3831 116.902 95.0441 117.467 95.7941 117.408L122.448 115.31C123.197 115.251 123.762 114.59 123.703 113.841C123.644 113.091 122.983 112.527 122.234 112.586L95.5791 114.683ZM94.1531 96.555L138.531 93.062C139.281 93.003 139.942 93.568 140.001 94.317V94.318C140.06 95.067 139.495 95.728 138.746 95.788L94.3671 99.28C93.6181 99.339 92.9571 98.774 92.8981 98.025V98.024C92.8381 97.276 93.4031 96.614 94.1531 96.555ZM94.5351 101.409C93.7861 101.468 93.2211 102.129 93.2801 102.879C93.3391 103.629 94.0001 104.193 94.7501 104.134L121.404 102.036C122.153 101.977 122.718 101.316 122.659 100.566C122.6 99.816 121.939 99.252 121.19 99.311L94.5351 101.409ZM93.1081 83.281L137.486 79.788C138.235 79.729 138.896 80.294 138.956 81.043C139.015 81.793 138.45 82.454 137.701 82.513L93.3221 86.007C92.5731 86.066 91.9121 85.501 91.8531 84.752C91.7941 84.001 92.3581 83.34 93.1081 83.281ZM93.4901 88.135C92.7401 88.194 92.1761 88.856 92.2351 89.605C92.2941 90.354 92.9561 90.919 93.7051 90.86L120.359 88.762C121.108 88.703 121.673 88.041 121.614 87.292V87.291C121.555 86.542 120.894 85.977 120.145 86.036L93.4901 88.135ZM79.4671 75.833C78.7171 75.891 78.1531 76.553 78.2121 77.303C78.2721 78.053 78.9331 78.616 79.6821 78.558L119.314 75.489C120.063 75.431 120.628 74.769 120.569 74.019C120.51 73.269 119.848 72.705 119.099 72.764L79.4671 75.833Z" fill="#D0AA66"/>
  <path fill-rule="evenodd" clip-rule="evenodd" d="M93.9071 37.21H106.627V34.53C106.627 31.644 108.988 29.284 111.873 29.284C114.759 29.284 117.12 31.645 117.12 34.53V37.21H129.84C131.584 37.21 133.01 38.637 133.01 40.38V46.419C133.01 48.163 131.583 49.589 129.84 49.589H93.9071C92.1631 49.589 90.7371 48.163 90.7371 46.419V40.38C90.7371 38.636 92.1631 37.21 93.9071 37.21ZM111.874 32.416C110.592 32.416 109.553 33.455 109.553 34.737C109.553 36.019 110.592 37.058 111.874 37.058C113.156 37.058 114.195 36.019 114.195 34.737C114.195 33.455 113.156 32.416 111.874 32.416Z" fill="#9DB2D9"/>
  <path fill-rule="evenodd" clip-rule="evenodd" d="M79.5631 85.97C79.3101 85.621 79.3881 85.133 79.7371 84.88C80.0861 84.627 80.5741 84.705 80.8271 85.054L82.8951 87.898L86.6971 81.66C86.9211 81.293 87.4011 81.176 87.7691 81.401C88.1361 81.625 88.2531 82.105 88.0281 82.473L83.6361 89.678C83.5821 89.777 83.5071 89.865 83.4101 89.935C83.0611 90.188 82.5731 90.11 82.3201 89.761L79.5631 85.97ZM83.7431 139.066C83.4901 138.717 83.5681 138.229 83.9171 137.976C84.2661 137.723 84.7541 137.801 85.0071 138.15L87.0751 140.994L90.8771 134.756C91.1011 134.389 91.5811 134.272 91.9491 134.497C92.3161 134.721 92.4331 135.201 92.2081 135.568L87.8161 142.774C87.7621 142.873 87.6871 142.961 87.5891 143.031C87.2401 143.284 86.7521 143.206 86.4991 142.857L83.7431 139.066ZM82.6981 125.792C82.4451 125.443 82.5231 124.955 82.8721 124.702C83.2211 124.449 83.7091 124.527 83.9621 124.876L86.0301 127.72L89.8321 121.482C90.0561 121.115 90.5361 120.998 90.9041 121.223C91.2711 121.447 91.3881 121.927 91.1631 122.294L86.7711 129.5C86.7171 129.599 86.6421 129.687 86.5451 129.757C86.1961 130.01 85.7081 129.932 85.4551 129.583L82.6981 125.792ZM81.6531 112.518C81.4001 112.169 81.4781 111.681 81.8271 111.428C82.1761 111.175 82.6641 111.253 82.9171 111.602L84.9851 114.446L88.7871 108.208C89.0111 107.841 89.4911 107.724 89.8591 107.949C90.2261 108.173 90.3431 108.653 90.1181 109.02L85.7261 116.226C85.6721 116.325 85.5971 116.413 85.5001 116.483C85.1511 116.736 84.6631 116.658 84.4101 116.309L81.6531 112.518ZM80.6081 99.244C80.3551 98.895 80.4331 98.407 80.7821 98.154C81.1311 97.901 81.6191 97.979 81.8721 98.328L83.9401 101.172L87.7421 94.934C87.9661 94.567 88.4461 94.45 88.8141 94.675C89.1811 94.899 89.2981 95.379 89.0731 95.746L84.6811 102.952C84.6271 103.051 84.5521 103.139 84.4551 103.209C84.1061 103.462 83.6181 103.384 83.3651 103.035L80.6081 99.244Z" fill="#7F7F7F"/>
  <path fill-rule="evenodd" clip-rule="evenodd" d="M91.1561 64.401L92.8461 64.251L92.5571 61.005L93.1321 60.954C93.9371 60.883 94.3221 61.173 94.6431 62.183C94.9361 63.132 95.2171 63.81 95.3631 64.028L97.1111 63.873C96.9121 63.587 96.5971 62.65 96.2601 61.725C95.9811 60.932 95.5881 60.421 94.9481 60.258L94.9451 60.227C95.7471 59.862 96.3731 59.083 96.2861 58.105C96.0951 55.961 93.8311 56.037 92.7161 56.136C91.8541 56.213 91.0321 56.359 90.4541 56.505L91.1561 64.401ZM92.2391 57.425C92.3731 57.371 92.6361 57.327 93.0151 57.293C93.6361 57.238 94.5041 57.36 94.5961 58.39C94.6631 59.15 94.1221 59.712 93.1571 59.798L92.4561 59.86L92.2391 57.425ZM102.125 55.361L102.555 60.193C102.682 61.617 102.171 62.258 101.251 62.34C100.377 62.418 99.7371 61.858 99.6121 60.455L99.1821 55.624L97.4801 55.775L97.8981 60.471C98.1071 62.819 99.3291 63.791 101.318 63.614C103.318 63.436 104.451 62.234 104.243 59.897L103.826 55.211L102.125 55.361ZM107.825 61.608L107.229 54.907L105.527 55.058L106.239 63.059L111.102 62.627L110.986 61.326L107.825 61.608ZM113.828 61.084L113.63 58.857L116.516 58.6L116.404 57.341L113.518 57.598L113.346 55.663L116.404 55.391L116.289 54.101L111.529 54.524L112.241 62.526L117.185 62.086L117.07 60.796L113.828 61.084ZM118.074 61.661C118.508 61.853 119.413 61.993 120.287 61.915C122.345 61.732 123.415 60.609 123.291 59.215C123.197 58.164 122.499 57.482 121.034 57.035C119.914 56.684 119.453 56.462 119.403 55.89C119.363 55.443 119.727 54.97 120.623 54.89C121.348 54.825 121.905 54.975 122.229 55.093L122.474 53.802C122.043 53.652 121.384 53.532 120.545 53.607C118.637 53.777 117.588 54.887 117.705 56.198C117.798 57.239 118.692 57.914 120.072 58.316C121.083 58.614 121.539 58.92 121.59 59.492C121.643 60.085 121.185 60.535 120.242 60.619C119.529 60.682 118.776 60.55 118.294 60.341L118.074 61.661Z" fill="white"/>
  <path fill-rule="evenodd" clip-rule="evenodd" d="M149.857 125.093L173.631 166.27C174.384 167.581 173.932 169.255 172.621 170.008C172.19 170.255 171.721 170.373 171.257 170.372V170.384H123.544C122.026 170.384 120.794 169.153 120.794 167.634C120.794 167.064 120.967 166.535 121.264 166.096L145.026 124.939C145.785 123.628 147.464 123.181 148.774 123.94C149.26 124.221 149.626 124.627 149.857 125.093Z" fill="#002D5D"/>
  <path fill-rule="evenodd" clip-rule="evenodd" d="M147.398 129.268L126.094 166.166H167.04V166.149L168.693 166.152L147.398 129.268Z" fill="white"/>
  <path fill-rule="evenodd" clip-rule="evenodd" d="M145.465 140.891H149.322C149.734 140.891 150.093 141.23 150.071 141.639L149.274 156.094C149.252 156.504 148.936 156.842 148.526 156.842H146.262C145.851 156.842 145.536 156.505 145.514 156.094L144.718 141.639C144.694 141.229 145.053 140.891 145.465 140.891ZM147.394 158.366C148.629 158.366 149.631 159.368 149.631 160.603C149.631 161.839 148.629 162.84 147.394 162.84C146.158 162.84 145.157 161.838 145.157 160.603C145.156 159.368 146.158 158.366 147.394 158.366Z" fill="#D0AA66"/>
  <path fill-rule="evenodd" clip-rule="evenodd" d="M49.0389 170.69C63.3039 170.69 74.9379 169.364 74.9379 167.738C74.9379 166.112 63.3039 164.786 49.0389 164.786C34.7749 164.786 23.1399 166.112 23.1399 167.738C23.1409 169.363 34.7749 170.69 49.0389 170.69Z" fill="#C4D1EB"/>
  <path fill-rule="evenodd" clip-rule="evenodd" d="M33.552 168.899C31.437 168.154 31.267 167.065 30.127 166.533C28.979 165.997 28.848 165.042 29.97 164.006C30.799 164.668 31.827 165.482 32.372 165.051C32.736 164.763 33.969 164.782 34.214 165.202C35.288 167.699 36.782 166.908 37.077 168.044C37.111 169.557 34.523 169.241 33.552 168.899ZM51.713 168.975C47.809 168.912 44.891 168.866 43.543 168.44C42.089 167.981 42.39 167.094 43.225 165.675C46.904 167.367 45.924 165.327 47.645 165.586C48.854 166.559 50.645 167.212 53.017 167.543C54.02 168.283 53.612 168.943 51.713 168.975Z" fill="#0E2952"/>
  <path fill-rule="evenodd" clip-rule="evenodd" d="M38.2229 74.237C38.8459 74.282 39.8289 74.162 40.0039 73.941C40.6669 73.099 41.1269 72.22 41.2969 71.666C41.1679 71.297 41.0319 70.832 40.8909 70.27C38.4889 68.638 38.1599 67.431 39.9059 66.649C40.2579 66.846 40.6939 67.454 41.2159 68.472C41.6319 68.456 41.9479 68.242 42.1629 67.833C41.6669 66.115 41.3439 64.72 41.1949 63.648C42.3789 61.889 45.1469 61.637 48.8119 62.112C48.9819 63.088 49.1219 64.121 49.2299 65.212C49.8779 65.809 49.7939 68.022 49.1969 70.573C49.4949 72.024 48.5999 72.816 46.5099 72.948C46.4799 73.463 46.5279 74.094 46.5609 74.165C46.6129 74.276 46.7989 74.383 47.0559 74.475C47.1269 76.87 44.1819 76.79 38.2229 74.237Z" fill="#F9AF79"/>
  <path fill-rule="evenodd" clip-rule="evenodd" d="M48.8109 62.112C45.1459 61.637 42.377 61.888 41.194 63.647C41.344 64.719 41.6659 66.114 42.1619 67.832C41.9469 68.241 41.6309 68.454 41.2149 68.471C40.6929 67.453 40.2569 66.846 39.9049 66.648C38.1589 67.431 38.4879 68.638 40.8899 70.27C41.0309 70.832 41.1669 71.298 41.2959 71.666C39.1349 71.182 37.327 69.249 37.072 68.413C34.551 63.444 37.362 61.346 38.867 60.581C39.531 55.661 46.676 60.01 50.256 57.638C51.6789 59.603 49.9199 62.068 48.8109 62.112Z" fill="#002D5D"/>
  <path fill-rule="evenodd" clip-rule="evenodd" d="M70.8071 82.953C68.9931 90.719 65.8071 96.746 61.2491 101.034C59.6061 100.535 58.1481 99.413 56.8771 97.665C56.9451 103.283 56.8051 108.874 56.4571 114.439C53.1301 116.016 48.7131 115.914 43.2051 114.133L40.9711 111.382C40.3971 111.271 39.0941 111.904 38.4691 112.871C33.2381 108.879 29.7121 104.589 27.6311 100.327C28.1931 91.17 29.4371 83.945 31.3631 78.652C32.3361 77.155 34.6231 75.684 38.2241 74.237C44.1841 76.791 47.1281 76.87 47.0571 74.476C48.8091 75.051 51.1351 76.069 54.0331 77.53C56.4481 79.365 58.5061 84.339 60.2061 92.452C62.9711 88.987 65.8391 85.314 68.8111 81.432C69.4711 81.619 70.1371 82.126 70.8071 82.953ZM39.7671 108.9C41.5011 103.199 40.5441 96.164 36.8951 87.797C35.9771 91.925 34.9841 95.989 33.9181 99.987C35.1571 100.575 37.1061 103.546 39.7671 108.9Z" fill="#6D96CE"/>
  <path fill-rule="evenodd" clip-rule="evenodd" d="M39.118 116.332C39.963 116.266 41.326 115.533 43.205 114.133C48.712 115.914 53.129 116.016 56.457 114.439C57.049 123.806 54.747 133.627 51.825 144.572C48.964 149.377 49.085 152.755 47.56 163.843C46.714 164.447 45.315 164.36 43.363 163.58C42.744 154.126 43.172 147.868 45.624 144.34C45.24 141.17 46.243 133.379 46.291 128.488C44.507 132.466 43.281 137.841 40.956 143.267C38.125 149.876 36.153 156.949 34.66 163.4C33.08 163.707 31.6 163.526 30.217 162.858C31.803 152.254 33.561 144.956 35.491 140.964C35.417 130.538 36.409 121.174 38.469 112.872C38.852 113.851 39.069 115.004 39.118 116.332Z" fill="#002D5D"/>
  <path fill-rule="evenodd" clip-rule="evenodd" d="M43.205 114.133C41.326 115.533 39.964 116.265 39.118 116.332C39.068 115.004 38.852 113.851 38.468 112.871C39.093 111.905 40.397 111.271 40.97 111.382L43.205 114.133Z" fill="#F9AF79"/>
  <path fill-rule="evenodd" clip-rule="evenodd" d="M56.877 97.665C56.695 92.209 56.258 87.736 55.565 84.247C57.33 91.657 59.04 96.575 60.695 99C61.741 98.967 63.066 98.347 64.671 97.14C63.632 98.567 62.492 99.866 61.249 101.034C59.606 100.535 58.148 99.412 56.877 97.665ZM40.971 111.382C40.65 110.589 40.249 109.761 39.767 108.899C41.501 103.198 40.544 96.163 36.895 87.796C42.201 95.34 43.706 103.382 41.409 111.922L40.971 111.382Z" fill="#466FB5"/>
  <path fill-rule="evenodd" clip-rule="evenodd" d="M44.1011 72.443C44.6871 72.733 45.4901 72.901 46.5101 72.948C46.4901 73.293 46.5051 73.691 46.5271 73.937C45.5011 73.74 44.6931 73.242 44.1011 72.443Z" fill="#ED7D57"/>
  <path fill-rule="evenodd" clip-rule="evenodd" d="M43.594 165.839C43.791 165.194 43.865 164.498 43.816 163.752C45.305 164.287 46.441 164.381 47.225 164.033C47.184 164.585 47.247 165.096 47.414 165.564C46.059 165.517 46.678 167.158 43.594 165.839ZM33.754 164.923C33.285 164.799 32.622 164.852 32.372 165.05C31.885 165.435 31.011 164.826 30.239 164.219C30.372 163.853 30.482 163.452 30.569 163.016C31.499 163.405 32.473 163.579 33.49 163.538C33.476 164.093 33.564 164.554 33.754 164.923Z" fill="#F9AF79"/>
  <path fill-rule="evenodd" clip-rule="evenodd" d="M39.062 117.663C39.121 117.181 39.14 116.738 39.118 116.332C39.963 116.266 41.325 115.533 43.204 114.133C43.65 114.278 44.09 114.411 44.521 114.533C43.2 115.909 41.381 116.952 39.062 117.663Z" fill="#0E2952"/>
  <path fill-rule="evenodd" clip-rule="evenodd" d="M81.1811 75.033L79.7031 71.81C71.7651 75.45 69.8231 76.341 61.8851 79.981C61.4421 80.184 61.2461 80.713 61.4491 81.156L62.1881 82.767C62.3911 83.21 62.9201 83.407 63.3631 83.203C71.3011 79.564 73.2431 78.674 81.1811 75.033Z" fill="#6D96CE"/>
  <path fill-rule="evenodd" clip-rule="evenodd" d="M79.7031 71.811L81.1811 75.033L84.8091 71.42L79.7031 71.811Z" fill="#F9AF79"/>
  <path d="M80.1958 72.8919L63.9438 80.3463L64.4271 81.3998L80.679 73.9453L80.1958 72.8919Z" fill="#466FB5"/>
  <path fill-rule="evenodd" clip-rule="evenodd" d="M63.4501 79.264L64.9281 82.487L63.3631 83.205C62.9201 83.408 62.3911 83.212 62.1881 82.769L61.4491 81.158C61.2461 80.715 61.4421 80.186 61.8851 79.983L63.4501 79.264ZM83.4711 72.753C82.5141 72.704 82.3421 72.307 82.9581 71.562L84.8101 71.42L83.4711 72.753Z" fill="#466FB5"/>
  <path fill-rule="evenodd" clip-rule="evenodd" d="M68.8101 81.431C68.8401 79.873 69.6751 79.492 69.8461 78.637C70.5631 78.949 70.7471 79.532 70.4011 80.385C70.7281 80.123 71.0501 79.839 71.3671 79.533C72.4071 79.056 73.2201 78.683 73.8061 78.415C73.4481 79.356 72.9491 80.444 72.3101 81.679C71.9291 82.279 71.3591 82.165 70.6381 82.75C70.0251 82.043 69.4151 81.603 68.8101 81.431Z" fill="#F9AF79"/>
  <path fill-rule="evenodd" clip-rule="evenodd" d="M44.267 66.133C43.976 66.169 43.615 65.048 44.322 64.961C44.7 64.917 44.743 66.073 44.267 66.133ZM48.455 65.85C48.746 65.814 48.842 64.64 48.135 64.727C47.757 64.773 47.976 65.911 48.455 65.85ZM44.45 63.915C44.921 63.875 44.953 64.264 44.623 64.411C44.527 64.455 42.668 65.063 42.738 64.935C42.87 64.671 43.557 63.993 44.45 63.915ZM47.567 63.649C47.096 63.702 47.136 64.091 47.488 64.169C47.654 64.205 49.549 64.437 49.417 64.287C49.197 64.044 48.426 63.551 47.567 63.649Z" fill="#20386F"/>
  <path fill-rule="evenodd" clip-rule="evenodd" d="M48.264 67.188C47.649 68.09 47.435 67.64 47.699 67.494C48.575 67.012 47.49 67.18 46.523 65.769C46.424 65.62 46.591 65.509 46.69 65.62C46.758 65.698 46.973 66.007 47.053 66.085C48.024 67.045 48.461 66.898 48.264 67.188Z" fill="#ED7D57"/>
  <path fill-rule="evenodd" clip-rule="evenodd" d="M48.2401 69.193C46.8721 71.814 45.3971 69.463 45.8031 69.393C47.8721 69.041 48.4081 68.873 48.2401 69.193Z" fill="white"/>
</svg>