<svg xmlns="http://www.w3.org/2000/svg" width="200" height="175" viewBox="0 0 200 175" fill="none">
  <path d="M167.465 114.992C167.497 114.999 167.53 115 167.562 114.995C167.595 114.99 167.626 114.978 167.654 114.96C167.681 114.943 167.706 114.92 167.725 114.894C167.744 114.867 167.757 114.837 167.765 114.804C167.895 114.241 168.195 113.739 168.66 113.312C168.706 113.266 168.732 113.204 168.734 113.139C168.735 113.074 168.712 113.011 168.668 112.964C168.624 112.916 168.563 112.887 168.498 112.883C168.433 112.88 168.369 112.901 168.32 112.943C167.781 113.44 167.43 114.029 167.278 114.692C167.27 114.724 167.269 114.757 167.275 114.79C167.28 114.822 167.292 114.853 167.309 114.881C167.327 114.909 167.349 114.933 167.376 114.952C167.403 114.971 167.433 114.985 167.465 114.992H167.465ZM163.272 118.041C163.204 117.363 163.435 116.858 163.997 116.452C164.025 116.433 164.048 116.409 164.066 116.381C164.084 116.353 164.096 116.321 164.102 116.289C164.107 116.256 164.106 116.222 164.099 116.19C164.091 116.157 164.077 116.127 164.058 116.1C164.038 116.073 164.014 116.05 163.985 116.033C163.957 116.015 163.925 116.004 163.892 115.999C163.859 115.994 163.826 115.996 163.793 116.004C163.761 116.012 163.731 116.027 163.704 116.047C162.993 116.56 162.689 117.228 162.774 118.09C162.807 118.421 163.304 118.372 163.272 118.041ZM164.87 125.313C164.853 125.249 164.811 125.195 164.753 125.162C164.696 125.129 164.628 125.119 164.564 125.136C163.914 125.31 163.194 125.247 162.585 124.964C162.525 124.939 162.458 124.937 162.398 124.961C162.337 124.984 162.288 125.03 162.26 125.089C162.233 125.148 162.23 125.215 162.251 125.276C162.273 125.338 162.317 125.388 162.375 125.418C163.101 125.754 163.921 125.825 164.693 125.62C164.725 125.611 164.755 125.596 164.781 125.576C164.807 125.556 164.829 125.531 164.845 125.503C164.862 125.474 164.872 125.443 164.877 125.41C164.881 125.378 164.879 125.345 164.87 125.313ZM171.2 117.612C171.173 117.591 171.142 117.577 171.109 117.568C171.077 117.56 171.043 117.559 171.009 117.564C170.976 117.57 170.944 117.582 170.916 117.6C170.887 117.618 170.863 117.641 170.844 117.669C170.824 117.697 170.811 117.728 170.804 117.761C170.798 117.794 170.798 117.828 170.804 117.861C170.811 117.894 170.824 117.925 170.844 117.953C170.863 117.981 170.887 118.005 170.916 118.023C171.798 118.634 172.506 118.696 173.376 118.516C173.408 118.509 173.438 118.496 173.466 118.478C173.493 118.46 173.516 118.436 173.534 118.409C173.552 118.381 173.565 118.35 173.571 118.318C173.577 118.286 173.576 118.253 173.57 118.22C173.563 118.188 173.55 118.158 173.532 118.13C173.514 118.103 173.49 118.08 173.463 118.062C173.435 118.044 173.404 118.031 173.372 118.025C173.34 118.019 173.306 118.02 173.274 118.026C172.701 118.145 172.068 118.212 171.199 117.612H171.2ZM160.115 121.043C159.882 120.321 159.922 119.539 160.228 118.845C160.255 118.784 160.256 118.716 160.233 118.654C160.209 118.592 160.161 118.542 160.101 118.515C160.04 118.488 159.971 118.486 159.909 118.51C159.848 118.534 159.798 118.581 159.771 118.642C159.415 119.45 159.369 120.36 159.641 121.2C159.743 121.514 160.22 121.36 160.116 121.043H160.115Z" fill="black"/>
  <path d="M185.22 130.06C185.175 129.98 182.095 124.54 176.31 121.825C178.699 114.395 183.01 112.72 183.07 112.7C183.16 112.67 183.22 112.585 183.23 112.49C183.235 112.444 183.227 112.397 183.206 112.356C183.186 112.314 183.154 112.279 183.115 112.255C182.975 112.165 169.745 104.085 158.56 112.745V91.89C158.555 91.8176 158.523 91.7498 158.47 91.7L149.96 84.502V67.5555C149.96 67.4155 149.85 67.3055 149.71 67.3055H129.641L115.979 55.7445C115.933 55.7062 115.876 55.6851 115.817 55.6851C115.757 55.6851 115.7 55.7062 115.655 55.7445L101.992 67.3055H89.0695C88.8445 62.8305 85.1345 59.2605 80.6095 59.2605C75.9345 59.2605 72.1345 63.0605 72.1345 67.7355C72.1345 72.4055 75.9345 76.2055 80.6095 76.2055C80.9645 76.2055 81.3195 76.1855 81.6645 76.1355V84.5025L73.156 91.7C73.1285 91.7237 73.1064 91.753 73.0913 91.7859C73.0761 91.8189 73.0681 91.8547 73.068 91.891V142.497L73.06 142.503C73.006 142.554 72.9678 142.62 72.9501 142.692C72.9324 142.765 72.9358 142.841 72.96 142.911H53.905L50.191 140.693V140.173H52.0725L50.684 110.252L48.354 112.594C48.3073 112.642 48.2437 112.668 48.1774 112.668C48.111 112.669 48.0473 112.642 48.0003 112.596C47.9532 112.549 47.9266 112.485 47.9264 112.419C47.9261 112.353 47.9523 112.289 47.999 112.242L50.6525 109.575L49.976 94.988L49.518 95.055C47.396 95.364 45.491 93.682 45.564 91.5185L45.7245 86.5935C45.7243 86.5603 45.7311 86.5274 45.7442 86.4969C45.7574 86.4664 45.7767 86.4389 45.801 86.4163C45.8252 86.3936 45.8539 86.3762 45.8853 86.3651C45.9166 86.354 45.9499 86.3496 45.983 86.352C46.0492 86.3542 46.1119 86.3826 46.1572 86.431C46.2024 86.4794 46.2267 86.5438 46.2245 86.61L46.064 91.535C46.001 93.383 47.6305 94.828 49.4455 94.56L49.928 94.4895C49.9365 94.4885 49.9445 94.4915 49.953 94.491L49.5105 84.966C49.5594 84.9502 49.6037 84.9228 49.6395 84.886C50.2555 84.1805 49.5445 75.822 49.4545 74.866C49.9695 76.391 50.6595 77.691 51.5145 78.311C52.9045 79.318 54.8595 78.217 55.7595 76.761C58.537 72.3165 57.7285 56.7565 57.1855 56.4045C57.272 55.6455 57.373 55.3895 57.4145 55.316C58.52 53.4095 58.3755 51.425 57.6995 50.386C57.684 50.321 57.963 48.692 56.3995 47.956V45.941C56.3995 45.801 56.2845 45.691 56.1495 45.691H49.62C49.48 45.691 49.37 45.801 49.37 45.941V51.346C46.715 48.831 44.46 47.76 39.41 47.501V46.931C39.69 46.971 40.11 46.971 40.505 46.771C41.4285 46.286 41.635 44.7455 41.6535 43.7025C42.1335 42.801 42.8735 41.0385 41.568 40.6355C41.568 40.6355 42.2035 40.1355 42.064 39.238C42.0586 39.2044 42.0448 39.1728 42.0238 39.1461C42.0027 39.1194 41.9752 39.0986 41.9438 39.0856C41.9124 39.0725 41.8782 39.0677 41.8445 39.0717C41.8107 39.0756 41.7785 39.0881 41.751 39.108C41.519 39.277 41.075 39.458 40.286 39.339C38.947 39.1375 35.926 38.542 35.471 41.477C35.202 43.208 35.371 44.164 35.5305 44.6335C35.5095 44.716 35.4955 44.8015 35.4955 44.891C35.4955 45.431 35.9005 45.876 36.4105 45.921C36.4205 46.271 36.4105 46.936 36.3905 47.431C29.562 47.3525 23.5385 52.4305 22.6205 61.371C22.5355 61.896 20.5455 74.331 24.4305 77.721C25.3455 78.521 26.5155 78.756 27.9055 78.426L26.4655 84.686C26.4455 84.761 26.4655 84.841 26.5105 84.901C26.5565 84.9515 26.6205 84.9825 26.689 84.987L25.7315 111.006C25.7786 110.961 25.8414 110.936 25.9063 110.937C25.9712 110.938 26.0332 110.965 26.079 111.01L28.783 113.729C28.8068 113.752 28.8258 113.779 28.8388 113.81C28.8518 113.84 28.8586 113.873 28.8588 113.906C28.859 113.94 28.8525 113.972 28.8399 114.003C28.8272 114.034 28.8086 114.062 28.785 114.085C28.7615 114.108 28.7336 114.127 28.7028 114.139C28.672 114.152 28.6391 114.158 28.6059 114.158C28.5727 114.157 28.54 114.15 28.5095 114.137C28.479 114.124 28.4515 114.105 28.4285 114.081L25.7245 111.363C25.722 111.36 25.721 111.356 25.7185 111.354L24.6585 140.173H26.1185L26.085 142.911H15C14.86 142.911 14.75 143.026 14.75 143.161C14.75 143.301 14.86 143.411 15 143.411H26.075L26.01 146.546C25.99 147.206 26.529 147.771 27.21 147.771H40.585C41.245 147.771 41.785 147.231 41.785 146.566C41.785 145.066 40.66 143.816 39.165 143.661L37.005 143.431L36.97 143.411H43.845L43.78 146.546C43.7771 146.706 43.8059 146.864 43.8649 147.012C43.9239 147.161 44.0117 147.296 44.1234 147.41C44.2351 147.524 44.3684 147.614 44.5154 147.676C44.6625 147.739 44.8204 147.771 44.98 147.771H58.355C60.401 147.771 59.744 143.952 56.94 143.661L54.775 143.431L54.74 143.411H179.315C179.45 143.411 179.565 143.301 179.565 143.161C179.565 143.026 179.45 142.911 179.315 142.911H168.965C170.145 142.125 171.149 141.1 171.945 139.841C178.49 129.546 184.895 130.421 184.96 130.431C185.006 130.438 185.054 130.432 185.097 130.414C185.14 130.395 185.178 130.365 185.205 130.327C185.232 130.288 185.247 130.243 185.25 130.196C185.253 130.149 185.242 130.102 185.22 130.061V130.06ZM115.816 56.2635L128.865 67.305H102.767L115.816 56.2635ZM49.691 140.699L47.7445 142.01L44.3905 140.988V140.172H49.6905V140.699H49.691ZM39.871 87.6135V91.783C39.8705 92.2951 39.6668 92.786 39.3047 93.148C38.9425 93.51 38.4516 93.7136 37.9395 93.714C37.8732 93.714 37.8096 93.6877 37.7627 93.6408C37.7158 93.5939 37.6895 93.5303 37.6895 93.464C37.6895 93.3977 37.7158 93.3341 37.7627 93.2872C37.8096 93.2403 37.8732 93.214 37.9395 93.214C38.3189 93.2135 38.6825 93.0625 38.9508 92.7943C39.219 92.526 39.37 92.1624 39.3705 91.783V87.614C39.3705 87.5477 39.3968 87.4841 39.4437 87.4372C39.4906 87.3903 39.5542 87.364 39.6205 87.364C39.6868 87.364 39.7504 87.3903 39.7973 87.4372C39.8442 87.4841 39.8705 87.5477 39.8705 87.614L39.871 87.6135ZM48.1695 115.215L49.5215 113.856C49.5445 113.832 49.572 113.813 49.6025 113.8C49.6329 113.787 49.6657 113.78 49.6989 113.779C49.7321 113.779 49.765 113.785 49.7958 113.798C49.8266 113.81 49.8545 113.829 49.878 113.852C49.9016 113.875 49.9202 113.903 49.9329 113.934C49.9455 113.965 49.952 113.997 49.9518 114.031C49.9516 114.064 49.9448 114.097 49.9318 114.127C49.9188 114.158 49.8998 114.185 49.876 114.209L48.524 115.568C48.5008 115.592 48.4733 115.61 48.4429 115.623C48.4126 115.636 48.3801 115.642 48.3472 115.642C48.3143 115.642 48.2818 115.636 48.2514 115.624C48.221 115.611 48.1933 115.593 48.17 115.57C48.1467 115.546 48.1282 115.519 48.1155 115.488C48.1028 115.458 48.0963 115.426 48.0962 115.393C48.0961 115.36 48.1025 115.327 48.115 115.297C48.1275 115.266 48.1463 115.239 48.1695 115.215ZM56.9845 55.0655C56.9345 55.1455 56.7945 55.3905 56.6895 56.3205H54.3145C53.9965 54.9405 55.0485 53.7755 54.3445 53.7055C53.5145 53.727 52.1045 53.5555 52.1045 52.7255C52.5365 53.0755 53.751 53.1695 53.5945 53.1355C53.6596 53.1355 53.7222 53.1101 53.7688 53.0648C53.8155 53.0194 53.8427 52.9576 53.8445 52.8925C53.8555 52.4525 53.3095 52.8085 52.4055 52.3175C52.2505 52.1545 52.1885 51.9985 52.1745 51.9005C52.6995 52.1625 53.365 52.3175 53.9685 52.279C54.2995 52.2565 54.263 51.759 53.9345 51.78C53.251 51.8265 52.1045 51.515 52.1045 50.92C53.08 51.485 55.809 51.575 55.8995 50.775C55.9064 50.742 55.9064 50.708 55.8995 50.675C55.8495 50.37 55.4145 50.235 54.6695 50C54.1545 49.84 53.0945 49.505 53.0845 49.195C53.4645 48.8925 55.601 49.4975 56.1345 49.675C56.1845 49.725 57.389 50.146 57.6445 51.605C57.9095 53.07 57.4345 54.2955 56.9845 55.0655ZM57.1945 49.7805C56.8695 49.4855 56.5595 49.3155 56.3995 49.2455V48.5205C56.8345 48.8005 57.1295 49.2655 57.1945 49.7805ZM49.8695 46.1905H55.8995V49.0805C54.9945 48.8055 53.3195 48.3805 52.7795 48.8005C52.6345 48.9105 52.5595 49.0755 52.5745 49.2605C52.6195 49.8805 53.5845 50.1855 54.5195 50.4755C54.7595 50.5555 55.0645 50.6505 55.2545 50.7305C54.2535 51.064 52.6845 50.7155 52.3345 50.4755C52.1695 50.3655 51.9945 50.3455 51.8445 50.4255C51.6895 50.5105 51.5995 50.6905 51.6045 50.9055C51.6045 51.0755 51.6645 51.2755 51.8045 51.4705C51.7995 51.4805 51.7945 51.4855 51.7895 51.4905C51.6395 51.6705 51.6245 51.9955 51.7995 52.3255C51.289 52.767 51.6695 54.136 54.0195 54.2055C53.7745 55.1055 53.7095 55.8155 53.8145 56.3605H49.8695V46.1905ZM36.5245 44.3605C36.6235 44.3605 36.708 44.353 36.7745 44.2405C37.087 44.478 37.1605 45.1065 37.1605 45.1065V43.2015C37.1605 43.2015 37.9215 43.2875 37.4905 42.5225C37.4905 42.5225 38.8015 41.049 39.567 42.197C40.173 43.106 40.8075 42.756 41.046 42.5705C41.2855 43.534 41.157 45.8625 40.2745 46.3205C39.9185 46.508 38.3385 46.582 38.0525 46.1455C38.013 46.0805 37.918 46.114 37.918 46.1835C37.918 46.211 37.948 46.776 38.9095 47.046V47.5405L38.1045 48.4555L36.8895 47.5155C36.9335 45.93 36.9965 45.3405 36.5895 45.4155C35.865 45.536 35.7635 44.3605 36.5245 44.3605ZM28.458 78.2455C31.3665 77.2805 39.808 72.7735 42.6765 70.0785C42.7147 70.0424 42.7406 69.9953 42.7505 69.9436C42.7603 69.892 42.7537 69.8386 42.7315 69.791L42.424 69.13C43.2165 68.856 43.524 68.08 43.639 67.536C43.739 67.697 43.8415 67.921 43.9105 68.225C44.0705 68.9315 44.1505 69.393 44.6905 69.393C44.9055 69.393 45.0845 69.296 45.202 69.1945C45.6305 69.2485 46.2325 68.8995 46.274 68.3375C46.2825 68.228 46.288 68.1185 46.2905 68.01C47.6905 68.0825 47.187 65.184 46.2885 63.8965L46.2645 63.862C49.4615 64.959 50.6015 65.6545 51.0245 64.8055C51.2265 64.401 51.103 63.8905 50.731 63.59C49.982 62.985 47.991 61.539 45.688 61.19C43.133 60.807 40.824 63.295 40.112 64.153L39.7985 63.478C39.7845 63.4482 39.7648 63.4214 39.7405 63.3992C39.7162 63.377 39.6877 63.3598 39.6567 63.3487C39.6257 63.3375 39.5928 63.3326 39.5599 63.3342C39.527 63.3358 39.4948 63.3439 39.465 63.358L31.6 67.08L32.2485 63.0685C32.2538 63.0361 32.2526 63.003 32.245 62.9711C32.2375 62.9392 32.2238 62.9091 32.2046 62.8825C32.1854 62.8559 32.1612 62.8333 32.1333 62.8161C32.1054 62.7988 32.0744 62.7873 32.042 62.782C32.0096 62.7767 31.9765 62.7779 31.9446 62.7855C31.9127 62.793 31.8826 62.8067 31.856 62.8259C31.8294 62.8451 31.8068 62.8693 31.7896 62.8972C31.7723 62.9251 31.7608 62.9561 31.7555 62.9885L31.0375 67.423L30.1125 69.0175C30.0961 69.0459 30.0854 69.0773 30.081 69.1099C30.0767 69.1424 30.0789 69.1755 30.0873 69.2073C30.0958 69.239 30.1105 69.2688 30.1304 69.2948C30.1504 69.3209 30.1753 69.3428 30.2038 69.3593C30.2322 69.3757 30.2636 69.3864 30.2961 69.3907C30.3287 69.395 30.3618 69.3929 30.3935 69.3844C30.4253 69.3759 30.455 69.3613 30.4811 69.3413C30.5072 69.3213 30.5291 69.2964 30.5455 69.268L31.454 67.702L39.451 63.917L42.2 69.8335C41.725 70.248 39.964 71.708 36.6225 73.6565C37.132 72.646 36.855 71.655 36.8505 71.6405C36.8289 71.5802 36.785 71.5305 36.7279 71.5016C36.6708 71.4727 36.6047 71.4667 36.5434 71.485C36.482 71.5032 36.4299 71.5443 36.3979 71.5997C36.3658 71.6551 36.3562 71.7207 36.371 71.783C36.3925 71.854 36.85 73.495 35.105 74.51C32.0285 76.1935 27.127 79.4025 24.76 77.345C22.16 75.0775 22.4025 68.1505 22.7755 64.225C23.3555 60.311 26.763 58.536 26.8005 58.5175C26.8592 58.4874 26.9037 58.4353 26.9241 58.3725C26.9446 58.3098 26.9394 58.2415 26.9097 58.1826C26.88 58.1236 26.8282 58.0788 26.7656 58.0579C26.703 58.037 26.6346 58.0417 26.5755 58.071C26.5445 58.086 24.348 59.2315 23.0755 61.6935C23.098 61.5405 23.113 61.446 23.1145 61.435C24.2895 49.98 33.1945 48.27 33.2795 48.255C35.6095 47.875 36.4545 47.925 36.6245 47.94L37.9895 48.995C38.09 49.073 38.2395 49.059 38.3295 48.96L39.1895 47.98C43.4335 48.177 45.3685 49.018 46.528 49.748C45.929 49.6405 45.4555 49.638 45.4215 49.637C45.3552 49.637 45.2916 49.6633 45.2447 49.7102C45.1978 49.7571 45.1715 49.8207 45.1715 49.887C45.1715 49.9533 45.1978 50.0169 45.2447 50.0638C45.2916 50.1107 45.3552 50.137 45.4215 50.137H45.4225C45.443 50.137 47.1325 50.147 48.0765 50.884C48.4135 51.154 48.853 51.524 49.3695 52.045V56.61C49.3695 56.745 49.4795 56.86 49.6195 56.86H50.6975C50.429 58.6581 50.2329 60.4662 50.1095 62.28C50.1086 62.3441 50.1323 62.4062 50.1757 62.4534C50.2191 62.5007 50.279 62.5295 50.3429 62.534C50.4069 62.5384 50.4702 62.5182 50.5198 62.4775C50.5694 62.4368 50.6015 62.3786 50.6095 62.315C50.7895 59.65 51.0995 57.515 51.2045 56.86H56.8245C56.94 57.95 57.4135 62.874 57.1755 67.72C56.7445 65.5065 55.8455 63.868 55.783 63.757C55.7505 63.6992 55.6964 63.6566 55.6325 63.6387C55.5687 63.6208 55.5003 63.629 55.4425 63.6615C55.3847 63.694 55.3421 63.7481 55.3242 63.812C55.3063 63.8758 55.3145 63.9442 55.347 64.002C57.7465 68.272 56.6085 72.646 56.61 72.648C55.707 77.1025 53.414 79.065 51.81 77.905C50.045 76.6265 49.159 72.145 48.8855 69.9685V66.689C48.8855 66.6227 48.8592 66.5591 48.8123 66.5122C48.7654 66.4653 48.7018 66.439 48.6355 66.439C48.5692 66.439 48.5056 66.4653 48.4587 66.5122C48.4118 66.5591 48.3855 66.6227 48.3855 66.689V69.992C48.3855 69.9995 48.3895 70.006 48.39 70.0135C48.39 70.0155 48.389 70.0175 48.39 70.02C48.4015 70.135 49.1985 75.5545 49.3585 81.113H35.329C35.2627 81.113 35.1991 81.1393 35.1522 81.1862C35.1053 81.2331 35.079 81.2967 35.079 81.363C35.079 81.4293 35.1053 81.4929 35.1522 81.5398C35.1991 81.5867 35.2627 81.613 35.329 81.613H49.371C49.4025 83.138 49.3625 84.161 49.2795 84.49H27.02L28.4585 78.245L28.458 78.2455ZM45.115 63.157C44.889 63.621 46.154 63.626 46.555 65.8335C46.902 67.71 46.291 67.451 46.275 67.501C46.168 65.933 45.055 64.102 44.616 64.582C44.5715 64.6311 44.5482 64.6958 44.5514 64.762C44.5546 64.8282 44.584 64.8904 44.633 64.935C45.583 65.796 45.9615 67.4325 45.7635 68.362C45.7225 68.553 45.4955 68.661 45.368 68.688C45.4885 66.741 44.2945 64.929 43.8615 65.403C43.4375 65.8715 45.12 66.098 44.862 68.826C44.8296 68.8517 44.7919 68.87 44.7516 68.8795C44.7114 68.889 44.6695 68.8895 44.629 68.881C44.419 68.4675 44.347 67.2235 43.5885 66.759C43.5509 66.7361 43.508 66.7236 43.464 66.7226C43.42 66.7216 43.3765 66.7323 43.338 66.7535C43.2994 66.7747 43.2672 66.8057 43.2444 66.8433C43.2217 66.881 43.2093 66.924 43.2085 66.968C43.2085 66.982 43.171 68.3075 42.3 68.6505L40.3785 64.618C40.8615 64.0165 43.1835 61.316 45.6135 61.684C47.795 62.015 49.699 63.399 50.4165 63.979C50.6075 64.133 50.675 64.3865 50.5775 64.5815C50.51 64.7175 50.3695 64.789 49.2365 64.3905C45.5945 63.183 45.2975 62.7895 45.115 63.157ZM26.6515 94.658C26.619 94.6533 26.5877 94.6422 26.5595 94.6254C26.5313 94.6086 26.5067 94.5864 26.487 94.56C26.4674 94.5337 26.4531 94.5038 26.4451 94.472C26.437 94.4401 26.4353 94.407 26.44 94.3745C26.4447 94.342 26.4558 94.3107 26.4726 94.2825C26.4894 94.2543 26.5116 94.2297 26.5379 94.21C26.5643 94.1904 26.5942 94.1761 26.626 94.1681C26.6579 94.16 26.691 94.1583 26.7235 94.163L29.43 94.558C31.262 94.8265 32.874 93.368 32.813 91.535L32.6505 86.61C32.6494 86.5772 32.6547 86.5444 32.6662 86.5137C32.6778 86.4829 32.6952 86.4547 32.7177 86.4307C32.7401 86.4067 32.767 86.3873 32.797 86.3737C32.8269 86.3602 32.8592 86.3526 32.892 86.3515C33.055 86.3455 33.146 86.4555 33.1505 86.593L33.313 91.518C33.3835 93.671 31.491 95.3635 29.358 95.053L26.6515 94.658ZM26.907 115.342C26.954 115.296 27.0177 115.27 27.084 115.27C27.1502 115.27 27.2138 115.297 27.2605 115.343L28.6125 116.702C28.6363 116.726 28.6553 116.753 28.6683 116.784C28.6813 116.814 28.6881 116.847 28.6883 116.88C28.6885 116.914 28.682 116.946 28.6694 116.977C28.6567 117.008 28.6381 117.036 28.6145 117.059C28.591 117.082 28.5631 117.101 28.5323 117.113C28.5015 117.126 28.4686 117.132 28.4354 117.132C28.4022 117.131 28.3695 117.124 28.339 117.111C28.3085 117.098 28.281 117.079 28.258 117.055L26.906 115.696C26.8593 115.649 26.8331 115.585 26.8333 115.519C26.8335 115.453 26.86 115.389 26.907 115.342ZM31.918 140.173V140.701L29.9705 142.01L26.6175 140.989V140.172H31.9175L31.918 140.173ZM36.8945 143.926C38.2625 144.233 40.1535 143.72 41.028 145.499H26.53L26.61 141.511L29.94 142.525C30.03 142.55 30.1025 142.513 30.153 142.492L30.155 142.49L32.175 141.13C36.115 143.488 36.8355 143.917 36.8945 143.926ZM36.1345 142.911L32.418 140.694V140.172H34.555L38.253 110.887C38.248 110.887 38.243 110.887 38.238 110.886C38.2057 110.88 38.175 110.868 38.1475 110.85C38.12 110.832 38.0963 110.809 38.0778 110.782C38.0593 110.755 38.0462 110.724 38.0395 110.692C38.0328 110.66 38.0324 110.627 38.0385 110.594L40.101 99.5025C40.107 99.4703 40.1194 99.4395 40.1373 99.4121C40.1552 99.3846 40.1784 99.3609 40.2054 99.3424C40.2325 99.3238 40.263 99.3108 40.2951 99.3041C40.3271 99.2973 40.3603 99.297 40.3925 99.303C40.4247 99.309 40.4555 99.3214 40.4829 99.3393C40.5104 99.3572 40.5341 99.3804 40.5526 99.4074C40.5711 99.4345 40.5842 99.4649 40.5909 99.497C40.5977 99.5291 40.598 99.5623 40.592 99.5945L38.5295 110.686C38.5196 110.738 38.4934 110.785 38.4547 110.821C38.416 110.857 38.3669 110.879 38.3145 110.885L41.873 140.172H43.8905L43.8545 142.911H36.1345ZM56.8845 144.156C57.2921 144.198 57.682 144.344 58.0177 144.579C58.3533 144.814 58.6236 145.131 58.803 145.499H44.3015C44.439 138.785 44.2565 147.638 44.3845 141.512L47.7145 142.525C47.8095 142.553 47.875 142.513 47.925 142.492C47.9755 142.458 50.083 141.04 49.95 141.13L53.76 143.411C54.9955 144.131 54.032 143.827 56.8845 144.156ZM182.434 112.44C181.199 113.076 177.839 115.315 175.824 121.61C171.307 119.658 166.761 120.038 162.165 121.955C164.965 118.705 168.679 116.405 173.124 115.205C173.185 115.185 173.236 115.143 173.267 115.086C173.297 115.03 173.305 114.964 173.288 114.902C173.271 114.84 173.232 114.787 173.177 114.753C173.123 114.719 173.057 114.708 172.995 114.72C168.095 116.045 164.07 118.671 161.145 122.421C160.242 122.856 159.377 123.366 158.559 123.946V113.381C168.444 105.431 180.109 111.155 182.434 112.44ZM158.059 142.113L122.91 115.083L130.178 110.382L158.059 92.349V142.113ZM157.891 91.863L149.96 96.9925V85.16L157.891 91.862V91.863ZM80.6095 75.705C76.2095 75.705 72.6345 72.13 72.6345 67.735C72.6345 63.335 76.2095 59.76 80.6095 59.76C84.8595 59.76 88.3445 63.105 88.5695 67.305C88.5745 67.445 88.5795 67.59 88.5795 67.735V67.805C88.5445 71.635 85.7945 74.83 82.1645 75.555C81.9995 75.585 81.8345 75.615 81.6645 75.635C81.3195 75.68 80.9695 75.705 80.6095 75.705ZM89.0795 67.805H149.46V97.315L122.488 114.757L116.075 109.826C116.003 109.763 115.912 109.729 115.817 109.729C115.722 109.729 115.631 109.763 115.56 109.826L109.143 114.759L82.1645 97.313V76.06C86.0745 75.335 89.0445 71.915 89.0795 67.805ZM81.6645 96.99L73.737 91.863L81.6645 85.1575V96.9905V96.99ZM73.568 92.349L108.719 115.084L73.568 142.111V92.35V92.349ZM171.525 139.57C170.615 141.005 169.434 142.125 168.014 142.91H158.666C158.75 142.665 158.589 142.547 158.559 142.497V133.995C167.124 125.205 176.599 128.2 176.714 128.235C176.849 128.28 176.99 128.21 177.029 128.08C177.04 128.049 177.045 128.016 177.043 127.983C177.041 127.95 177.033 127.918 177.018 127.888C177.004 127.858 176.984 127.831 176.959 127.81C176.935 127.788 176.906 127.771 176.874 127.76C176.759 127.725 167.249 124.705 158.559 133.285V124.535C162.544 121.572 169.398 119.356 175.674 122.09C175.835 122.16 175.994 122.235 176.154 122.31C180.85 124.535 183.71 128.605 184.535 129.9C182.865 129.88 177.27 130.53 171.525 139.57Z" fill="black"/>
  <path d="M174.162 124.584C173.563 124.729 173.064 125.019 172.68 125.446C172.457 125.692 172.833 126.022 173.051 125.781C173.367 125.431 173.781 125.192 174.28 125.071C174.344 125.055 174.4 125.014 174.434 124.957C174.469 124.901 174.48 124.833 174.464 124.768C174.448 124.704 174.407 124.649 174.351 124.614C174.294 124.58 174.226 124.569 174.162 124.584ZM169.57 124.976C168.83 125.063 168.329 125.434 168.037 126.108C168.011 126.169 168.01 126.238 168.034 126.3C168.059 126.362 168.107 126.411 168.167 126.437C168.228 126.464 168.297 126.465 168.359 126.44C168.42 126.416 168.47 126.368 168.496 126.307C168.714 125.803 169.073 125.538 169.628 125.472C169.661 125.468 169.692 125.458 169.721 125.442C169.749 125.426 169.775 125.404 169.795 125.379C169.815 125.353 169.83 125.323 169.839 125.292C169.848 125.26 169.851 125.227 169.847 125.195C169.831 125.057 169.705 124.953 169.57 124.976ZM166.548 131.915C166.01 131.777 165.536 131.458 165.206 131.01C165.165 130.962 165.107 130.931 165.044 130.924C164.981 130.916 164.918 130.933 164.866 130.97C164.815 131.007 164.78 131.063 164.768 131.125C164.756 131.187 164.768 131.252 164.801 131.305C165.198 131.849 165.773 132.237 166.426 132.401C166.488 132.411 166.552 132.397 166.604 132.363C166.657 132.328 166.694 132.275 166.709 132.214C166.725 132.154 166.717 132.089 166.687 132.034C166.657 131.979 166.607 131.937 166.548 131.916V131.915ZM171.55 130.668C170.995 130.578 170.485 130.308 170.097 129.902C170.051 129.854 169.988 129.826 169.921 129.825C169.855 129.823 169.791 129.848 169.743 129.894C169.695 129.94 169.668 130.003 169.666 130.069C169.665 130.135 169.69 130.2 169.736 130.247C170.177 130.708 171.651 131.549 171.753 130.958C171.758 130.925 171.758 130.892 171.751 130.86C171.743 130.828 171.73 130.797 171.711 130.771C171.692 130.744 171.668 130.721 171.641 130.703C171.613 130.686 171.582 130.674 171.55 130.668ZM175.731 130.267C175.276 130.124 174.8 129.922 174.419 129.152C174.389 129.095 174.337 129.051 174.275 129.032C174.213 129.012 174.146 129.017 174.088 129.046C174.029 129.074 173.985 129.125 173.963 129.186C173.941 129.247 173.944 129.314 173.971 129.374C174.439 130.321 175.048 130.578 175.583 130.745C175.646 130.764 175.714 130.758 175.773 130.727C175.832 130.696 175.876 130.643 175.896 130.58C175.915 130.517 175.909 130.448 175.878 130.389C175.847 130.331 175.794 130.287 175.731 130.267ZM165.65 125.282C165.058 125.731 164.652 126.382 164.509 127.111C164.447 127.436 164.939 127.53 165.001 127.205C165.12 126.598 165.458 126.056 165.951 125.682C166.004 125.642 166.039 125.582 166.049 125.517C166.058 125.451 166.041 125.384 166.001 125.331C165.961 125.278 165.902 125.243 165.836 125.234C165.77 125.225 165.704 125.242 165.651 125.282L165.65 125.282ZM94.7216 82.8085H136.902C137.037 82.8085 137.143 82.702 137.143 82.5665V73.1525C137.143 73.0885 137.118 73.0271 137.072 72.9819C137.027 72.9366 136.966 72.9111 136.902 72.911H94.7216C94.6578 72.9119 94.5969 72.9376 94.5517 72.9827C94.5065 73.0278 94.4807 73.0887 94.4796 73.1525V82.5665C94.4796 82.702 94.5911 82.8085 94.7216 82.8085ZM91.2001 87.996H140.426C140.492 87.996 140.556 87.9697 140.603 87.9228C140.65 87.8759 140.676 87.8123 140.676 87.746C140.676 87.6797 140.65 87.6161 140.603 87.5692C140.556 87.5223 140.492 87.496 140.426 87.496H91.2001C91.1338 87.496 91.0702 87.5223 91.0233 87.5692C90.9765 87.6161 90.9501 87.6797 90.9501 87.746C90.9501 87.8123 90.9765 87.8759 91.0233 87.9228C91.0702 87.9697 91.1338 87.996 91.2001 87.996ZM91.2001 93.034H140.426C140.492 93.034 140.556 93.0077 140.603 92.9608C140.65 92.9139 140.676 92.8503 140.676 92.784C140.676 92.7177 140.65 92.6541 140.603 92.6072C140.556 92.5603 140.492 92.534 140.426 92.534H91.2001C91.1338 92.534 91.0702 92.5603 91.0233 92.6072C90.9765 92.6541 90.9501 92.7177 90.9501 92.784C90.9501 92.8503 90.9765 92.9139 91.0233 92.9608C91.0702 93.0077 91.1338 93.034 91.2001 93.034ZM91.2001 98.0715H140.426C140.492 98.0715 140.556 98.0452 140.603 97.9983C140.65 97.9514 140.676 97.8878 140.676 97.8215C140.676 97.7552 140.65 97.6916 140.603 97.6447C140.556 97.5978 140.492 97.5715 140.426 97.5715H91.2001C91.1338 97.5715 91.0702 97.5978 91.0233 97.6447C90.9765 97.6916 90.9501 97.7552 90.9501 97.8215C90.9501 97.8878 90.9765 97.9514 91.0233 97.9983C91.0702 98.0452 91.1338 98.0715 91.2001 98.0715ZM132.798 102.609H98.8281C98.7618 102.609 98.6982 102.635 98.6513 102.682C98.6045 102.729 98.5781 102.793 98.5781 102.859C98.5781 102.925 98.6045 102.989 98.6513 103.036C98.6982 103.083 98.7618 103.109 98.8281 103.109H132.798C132.864 103.109 132.928 103.083 132.975 103.036C133.022 102.989 133.048 102.925 133.048 102.859C133.048 102.793 133.022 102.729 132.975 102.682C132.928 102.635 132.864 102.609 132.798 102.609ZM63.9601 46.819C63.9518 46.8586 63.9534 46.8997 63.9649 46.9385C63.9763 46.9773 63.9973 47.0127 64.0258 47.0414C64.0543 47.0702 64.0894 47.0914 64.1282 47.1032C64.1669 47.115 64.2079 47.117 64.2476 47.109H66.1041C66.1381 47.109 66.1671 47.104 66.1961 47.0895L68.6716 46.0605C70.6446 46.8995 71.9386 46.8335 73.9046 46.8335C79.2976 46.8335 83.6861 42.4455 83.6861 37.052C83.6861 30.828 77.9576 26.749 73.7401 27.2755C72.6076 27.263 72.4216 27.253 72.1481 27.2795C66.9106 27.461 62.7031 31.769 62.7031 37.052C62.7031 39.221 63.3971 41.272 64.7111 42.992L63.9601 46.819ZM63.2031 37.052C63.2031 31.93 67.3686 27.762 72.4881 27.762C77.6111 27.762 81.7781 31.93 81.7781 37.052C81.7781 44.1745 74.0611 48.6155 67.9381 45.147C67.905 45.1282 67.868 45.1173 67.8299 45.1149C67.7919 45.1126 67.7538 45.1189 67.7186 45.1335L64.5406 46.4565L65.2231 42.977C65.2302 42.9419 65.2295 42.9056 65.2212 42.8707C65.2129 42.8359 65.1972 42.8032 65.1751 42.775C63.8916 41.1441 63.1967 39.1274 63.2031 37.052Z" fill="black"/>
  <path d="M67.6335 38.429C68.0317 38.4278 68.4133 38.2691 68.6949 37.9875C68.9765 37.7059 69.1353 37.3243 69.1365 36.926C69.1365 36.095 68.46 35.4135 67.6335 35.4135C67.2328 35.415 66.8489 35.5748 66.5656 35.8581C66.2822 36.1414 66.1224 36.5253 66.121 36.926C66.121 37.7525 66.8025 38.429 67.6335 38.429ZM72.4905 38.429C72.8895 38.4289 73.2722 38.2706 73.5549 37.9889C73.8375 37.7073 73.997 37.325 73.9985 36.926C73.9985 36.095 73.322 35.4135 72.4905 35.4135C71.659 35.4135 70.9825 36.095 70.9825 36.926C70.9839 37.325 71.1434 37.7073 71.4261 37.9889C71.7087 38.2706 72.0914 38.4289 72.4905 38.429ZM77.352 38.429C77.751 38.4289 78.1337 38.2706 78.4164 37.9889C78.699 37.7073 78.8585 37.325 78.86 36.926C78.8596 36.5258 78.7007 36.142 78.4181 35.8585C78.1355 35.5751 77.7522 35.4151 77.352 35.4135C76.9518 35.4152 76.5686 35.5753 76.2861 35.8587C76.0037 36.1421 75.8449 36.5259 75.8445 36.926C75.846 37.3249 76.0055 37.707 76.288 37.9886C76.5705 38.2703 76.953 38.4286 77.352 38.429ZM139.675 43.4965L144.49 45.4855L145.915 50.3405C145.927 50.3905 146.002 50.665 146.35 50.4705L149.723 47.646L151.803 48.505H151.804C151.936 48.55 152.044 48.5075 152.109 48.41L159.169 37.7C159.26 37.58 159.193 37.375 159.031 37.325C159.027 37.324 159.023 37.3215 159.019 37.32C158.976 37.3188 158.932 37.3198 158.888 37.323L139.7 43.025H139.699C139.456 43.0985 139.485 43.417 139.675 43.496L139.675 43.4965ZM151.803 47.9645L146.43 45.745L146.455 45.345L146.5 45.32V45.315C162.209 35.538 144.259 46.716 158.147 38.065L158.373 37.998L151.804 47.9645H151.803ZM156.48 38.5605L144.49 44.7655C144.435 44.7955 144.395 44.8405 144.375 44.8955L140.521 43.305C162.049 36.905 155.039 38.989 156.48 38.5605ZM132.504 59.7275C132.516 59.6969 132.522 59.6643 132.521 59.6316C132.521 59.5988 132.513 59.5665 132.5 59.5365C132.487 59.5065 132.468 59.4794 132.444 59.4567C132.42 59.4341 132.393 59.4163 132.362 59.4045C131.9 59.2255 131.466 59.0045 131.072 58.7485C131.044 58.7295 131.013 58.7163 130.981 58.7095C130.948 58.7027 130.914 58.7026 130.882 58.7091C130.849 58.7155 130.818 58.7285 130.79 58.7472C130.762 58.766 130.739 58.79 130.72 58.818C130.702 58.846 130.69 58.8774 130.684 58.9103C130.678 58.9431 130.679 58.9769 130.686 59.0094C130.694 59.042 130.707 59.0728 130.727 59.0999C130.746 59.1271 130.771 59.1501 130.799 59.1675C131.235 59.4487 131.698 59.6843 132.181 59.8705C132.307 59.92 132.454 59.858 132.504 59.7275ZM131.797 63.2065C132.303 63.1068 132.799 62.9593 133.277 62.766C133.307 62.7537 133.335 62.7355 133.358 62.7124C133.382 62.6894 133.4 62.662 133.413 62.6317C133.426 62.6015 133.433 62.5691 133.433 62.5363C133.433 62.5034 133.427 62.4709 133.414 62.4405C133.402 62.4101 133.384 62.3824 133.361 62.3591C133.338 62.3357 133.31 62.3171 133.28 62.3043C133.25 62.2916 133.218 62.2849 133.185 62.2847C133.152 62.2844 133.119 62.2907 133.089 62.303C132.651 62.4805 132.184 62.62 131.699 62.7165C131.636 62.7314 131.581 62.7702 131.546 62.8247C131.511 62.8793 131.499 62.9453 131.511 63.0089C131.524 63.0724 131.561 63.1285 131.614 63.1654C131.667 63.2023 131.733 63.217 131.797 63.2065ZM132.546 51.661C132.543 51.7273 132.567 51.7919 132.612 51.8406C132.657 51.8894 132.72 51.9183 132.786 51.921C133.246 51.9385 133.708 52.0415 134.157 52.226C134.218 52.2477 134.285 52.2452 134.344 52.219C134.403 52.1927 134.449 52.1448 134.474 52.0852C134.498 52.0256 134.499 51.9589 134.475 51.8989C134.452 51.8388 134.406 51.7902 134.347 51.763C133.857 51.5599 133.335 51.4439 132.805 51.4205C132.74 51.4198 132.676 51.4443 132.628 51.4889C132.58 51.5335 132.55 51.5949 132.545 51.6605L132.546 51.661ZM128.511 63.06C128.505 63.126 128.525 63.1917 128.568 63.2427C128.61 63.2937 128.671 63.3258 128.737 63.332C129.287 63.384 129.787 63.397 130.267 63.3805C130.334 63.3782 130.396 63.3496 130.441 63.3011C130.487 63.2527 130.511 63.1882 130.508 63.122C130.505 63.0562 130.476 62.9944 130.428 62.9494C130.379 62.9044 130.316 62.8798 130.25 62.8805C129.772 62.8975 129.289 62.8815 128.783 62.834C128.652 62.829 128.524 62.923 128.511 63.06ZM133.467 59.995C133.442 60.131 133.532 60.2615 133.668 60.287C134.167 60.3785 134.68 60.4355 135.193 60.4555H135.203C135.27 60.4568 135.334 60.4318 135.382 60.3858C135.43 60.3399 135.457 60.2768 135.458 60.2105C135.46 60.1442 135.435 60.0801 135.389 60.0323C135.343 59.9844 135.28 59.9568 135.213 59.9555C134.725 59.9368 134.239 59.8833 133.759 59.7955C133.727 59.7892 133.693 59.7893 133.661 59.796C133.629 59.8026 133.598 59.8157 133.571 59.8343C133.544 59.8529 133.521 59.8768 133.503 59.9044C133.485 59.9321 133.473 59.9626 133.467 59.995ZM131.412 52.1395C131.472 52.1145 131.519 52.0673 131.545 52.0079C131.571 51.9486 131.572 51.8816 131.55 51.821C131.527 51.7604 131.482 51.7109 131.424 51.6829C131.365 51.6548 131.298 51.6504 131.237 51.6705C130.74 51.8588 130.281 52.1348 129.881 52.4855C129.831 52.5293 129.801 52.5911 129.797 52.6573C129.792 52.7234 129.814 52.7886 129.858 52.8385C130.143 53.163 130.304 52.5535 131.412 52.1395ZM135.415 60.639C135.095 60.9997 134.736 61.324 134.345 61.606C134.319 61.6252 134.296 61.6494 134.279 61.6773C134.261 61.7053 134.25 61.7363 134.244 61.7688C134.239 61.8012 134.24 61.8344 134.248 61.8664C134.255 61.8984 134.269 61.9286 134.288 61.9553C134.307 61.9819 134.332 62.0046 134.36 62.0219C134.387 62.0392 134.419 62.0509 134.451 62.0562C134.483 62.0615 134.517 62.0604 134.549 62.0529C134.581 62.0454 134.611 62.0317 134.637 62.0125C135.058 61.7086 135.444 61.3593 135.789 60.971C135.811 60.9464 135.828 60.9178 135.838 60.8868C135.849 60.8558 135.854 60.8229 135.852 60.7902C135.85 60.7574 135.841 60.7253 135.827 60.6958C135.813 60.6662 135.793 60.6398 135.768 60.618C135.743 60.5962 135.715 60.5795 135.684 60.5687C135.653 60.558 135.62 60.5534 135.587 60.5554C135.554 60.5573 135.522 60.5657 135.493 60.5801C135.463 60.5944 135.437 60.6144 135.415 60.639ZM136.701 60.411C137.218 60.3609 137.732 60.2748 138.237 60.1535C138.302 60.138 138.358 60.0975 138.392 60.0409C138.427 59.9843 138.438 59.9163 138.422 59.8518C138.407 59.7872 138.366 59.7315 138.31 59.6969C138.253 59.6622 138.185 59.6515 138.12 59.667C137.649 59.781 137.163 59.8635 136.676 59.912C136.362 59.9435 136.387 60.411 136.701 60.411H136.701ZM129.975 57.8285C129.638 57.46 129.383 57.0625 129.215 56.6475C129.19 56.5861 129.142 56.5372 129.081 56.5114C129.019 56.4857 128.951 56.4853 128.889 56.5103C128.828 56.5353 128.779 56.5836 128.753 56.6447C128.727 56.7058 128.727 56.7746 128.752 56.836C128.942 57.3055 129.229 57.7525 129.604 58.165C129.824 58.407 130.199 58.076 129.974 57.8285H129.975ZM137.05 56.7265C137.049 56.7594 137.055 56.7921 137.067 56.8228C137.078 56.8535 137.096 56.8816 137.119 56.9054C137.141 56.9292 137.169 56.9483 137.199 56.9617C137.229 56.975 137.261 56.9822 137.294 56.983H137.3C137.365 56.983 137.428 56.9576 137.474 56.9121C137.521 56.8666 137.548 56.8047 137.55 56.7395C137.547 56.6775 137.595 56.0135 137.373 55.1835C137.355 55.1197 137.313 55.0654 137.256 55.0323C137.199 54.9992 137.131 54.9899 137.066 55.0065C137.002 55.0237 136.948 55.0657 136.915 55.1231C136.881 55.1806 136.872 55.2489 136.889 55.313C137.091 56.063 137.047 56.672 137.05 56.7265ZM139.7 59.6935C140.177 59.5065 140.64 59.2859 141.085 59.0335C141.114 59.0174 141.139 58.9958 141.159 58.97C141.179 58.9442 141.194 58.9146 141.203 58.883C141.212 58.8514 141.214 58.8184 141.21 58.7859C141.206 58.7534 141.196 58.722 141.179 58.6935C141.163 58.6648 141.142 58.6396 141.116 58.6193C141.09 58.599 141.061 58.584 141.029 58.5751C140.998 58.5663 140.965 58.5638 140.932 58.5678C140.899 58.5718 140.868 58.5823 140.839 58.5985C140.414 58.8389 139.973 59.049 139.518 59.2275C139.459 59.2538 139.413 59.3017 139.388 59.3613C139.364 59.4209 139.363 59.4876 139.387 59.5476C139.41 59.6076 139.456 59.6562 139.514 59.6834C139.573 59.7106 139.639 59.7142 139.7 59.6935ZM136.315 54.019C136.332 54.0481 136.355 54.0733 136.382 54.0933C136.409 54.1133 136.44 54.1276 136.473 54.1353C136.506 54.143 136.54 54.144 136.573 54.1382C136.606 54.1325 136.638 54.12 136.666 54.1016C136.695 54.0833 136.719 54.0594 136.738 54.0314C136.757 54.0034 136.77 53.9719 136.776 53.9387C136.782 53.9056 136.782 53.8715 136.775 53.8386C136.767 53.8056 136.754 53.7745 136.734 53.747C136.447 53.3063 136.095 52.9113 135.691 52.575C135.64 52.5344 135.575 52.5155 135.51 52.5222C135.445 52.5289 135.385 52.5607 135.344 52.6108C135.302 52.6609 135.281 52.7254 135.286 52.7905C135.291 52.8556 135.322 52.916 135.371 52.959C135.737 53.2631 136.055 53.6204 136.315 54.019ZM136.69 59.7085C136.948 59.2485 137.153 58.768 137.298 58.2795C137.317 58.2159 137.309 58.1474 137.278 58.0891C137.246 58.0308 137.192 57.9875 137.129 57.9688C137.065 57.95 136.997 57.9573 136.938 57.989C136.88 58.0208 136.837 58.0744 136.818 58.138C136.68 58.5995 136.491 59.0441 136.254 59.4635C136.09 59.7535 136.528 59.9955 136.689 59.7085H136.69ZM146.177 51.518C146.112 51.5052 146.045 51.5181 145.99 51.554C145.934 51.59 145.895 51.6461 145.88 51.7105C145.778 52.1878 145.641 52.6572 145.471 53.115C145.356 53.427 145.826 53.598 145.94 53.289C146.118 52.8084 146.262 52.3159 146.369 51.815C146.376 51.7829 146.377 51.7497 146.371 51.7173C146.365 51.685 146.353 51.6542 146.335 51.6266C146.317 51.599 146.294 51.5752 146.267 51.5566C146.24 51.5379 146.209 51.5248 146.177 51.518ZM127.326 62.6185C127.108 62.5752 126.892 62.5277 126.676 62.476C126.644 62.4679 126.611 62.4662 126.578 62.4711C126.546 62.4761 126.514 62.4875 126.486 62.5048C126.458 62.522 126.434 62.5448 126.415 62.5716C126.396 62.5984 126.382 62.6288 126.375 62.661C126.36 62.7255 126.37 62.7934 126.405 62.8498C126.44 62.9062 126.496 62.9466 126.56 62.962C126.948 63.0545 127.453 63.2635 127.522 62.912C127.535 62.847 127.522 62.7796 127.485 62.7246C127.448 62.6696 127.391 62.6314 127.326 62.6185ZM143.143 56.808C142.804 57.1591 142.44 57.4861 142.054 57.7865C141.793 57.99 142.103 58.3815 142.362 58.181C142.762 57.8695 143.146 57.5245 143.503 57.1555C143.526 57.1319 143.544 57.1041 143.556 57.0735C143.568 57.0429 143.574 57.0102 143.574 56.9773C143.573 56.9444 143.566 56.9119 143.553 56.8817C143.54 56.8515 143.521 56.8242 143.498 56.8013C143.474 56.7785 143.446 56.7605 143.415 56.7484C143.385 56.7364 143.352 56.7305 143.319 56.7311C143.286 56.7317 143.254 56.7389 143.224 56.7521C143.193 56.7652 143.166 56.7843 143.143 56.808ZM144.867 54.449C144.637 54.8755 144.374 55.2925 144.086 55.6875C143.892 55.955 144.294 56.2495 144.49 55.9825C144.792 55.5691 145.065 55.136 145.308 54.686C145.337 54.6279 145.342 54.5607 145.323 54.4988C145.303 54.4368 145.26 54.3849 145.203 54.3541C145.146 54.3233 145.079 54.3159 145.016 54.3337C144.954 54.3514 144.901 54.3928 144.868 54.449H144.867ZM128.713 55.527C128.746 55.5285 128.779 55.5235 128.81 55.5123C128.841 55.5011 128.869 55.4839 128.893 55.4618C128.917 55.4396 128.937 55.4129 128.951 55.3832C128.965 55.3535 128.973 55.3213 128.974 55.2885C128.997 54.8238 129.123 54.37 129.342 53.9595C129.358 53.9303 129.368 53.8982 129.372 53.8651C129.376 53.8319 129.372 53.7983 129.363 53.7664C129.353 53.7344 129.337 53.7047 129.316 53.679C129.295 53.6533 129.269 53.6321 129.239 53.6166C129.21 53.6012 129.177 53.5918 129.144 53.589C129.111 53.5863 129.077 53.5902 129.046 53.6006C129.014 53.611 128.985 53.6276 128.959 53.6495C128.934 53.6714 128.914 53.6981 128.899 53.728C128.646 54.2034 128.501 54.7287 128.475 55.2665C128.473 55.2993 128.478 55.332 128.49 55.3629C128.501 55.3937 128.518 55.422 128.54 55.4462C128.562 55.4704 128.589 55.49 128.619 55.5039C128.649 55.5177 128.681 55.5256 128.713 55.527ZM86.595 67.735C86.595 64.43 83.91 61.745 80.61 61.745C77.305 61.745 74.62 64.43 74.62 67.735C74.62 71.035 77.305 73.72 80.61 73.72C83.91 73.72 86.595 71.035 86.595 67.735ZM82.02 70.32H79.25C79.0315 70.32 78.875 70.1655 78.875 69.945C78.875 69.7315 79.024 69.56 79.25 69.56H80.315V66.095L79.4 66.54C78.837 66.7865 78.589 66.0755 79.045 65.84L80.265 65.205C80.614 65.0305 81.13 65.15 81.13 65.575V69.56H82.02C82.258 69.56 82.405 69.754 82.405 69.945C82.405 70.143 82.2515 70.32 82.02 70.32ZM30.056 67.293C30.0276 67.2764 29.9962 67.2656 29.9637 67.2613C29.9311 67.2569 29.898 67.259 29.8663 67.2674C29.8345 67.2759 29.8048 67.2905 29.7787 67.3105C29.7527 67.3306 29.7308 67.3555 29.7145 67.384L29.152 68.352C29.1355 68.3804 29.1248 68.4118 29.1204 68.4443C29.116 68.4769 29.1181 68.5099 29.1266 68.5417C29.135 68.5734 29.1496 68.6032 29.1695 68.6293C29.1894 68.6554 29.2143 68.6773 29.2427 68.6938C29.2711 68.7102 29.3025 68.721 29.335 68.7253C29.3676 68.7297 29.4006 68.7276 29.4324 68.7192C29.4641 68.7107 29.4939 68.6961 29.52 68.6762C29.5461 68.6563 29.568 68.6314 29.5845 68.603L30.147 67.635C30.1635 67.6066 30.1742 67.5752 30.1786 67.5426C30.1829 67.51 30.1808 67.4769 30.1724 67.4451C30.1639 67.4134 30.1493 67.3836 30.1293 67.3575C30.1093 67.3314 30.0844 67.3095 30.056 67.293ZM78.0525 104.075C77.9862 104.075 77.9226 104.101 77.8757 104.148C77.8288 104.195 77.8025 104.258 77.8025 104.325V129.263C77.8025 129.329 77.8288 129.393 77.8757 129.44C77.9226 129.487 77.9862 129.513 78.0525 129.513C78.1188 129.513 78.1824 129.487 78.2292 129.44C78.2761 129.393 78.3025 129.329 78.3025 129.263V104.325C78.3025 104.258 78.2761 104.195 78.2292 104.148C78.1824 104.101 78.1188 104.075 78.0525 104.075ZM152.994 103.802C152.928 103.802 152.864 103.828 152.817 103.875C152.77 103.922 152.744 103.986 152.744 104.052V128.991C152.744 129.057 152.77 129.121 152.817 129.168C152.864 129.215 152.928 129.241 152.994 129.241C153.06 129.241 153.124 129.215 153.171 129.168C153.218 129.121 153.244 129.057 153.244 128.991V104.052C153.244 103.986 153.218 103.922 153.171 103.875C153.124 103.828 153.06 103.802 152.994 103.802ZM106.398 42.78C106.452 42.8171 106.518 42.8317 106.583 42.8206C106.647 42.8095 106.705 42.7737 106.743 42.7208C106.781 42.6678 106.797 42.602 106.788 42.5374C106.778 42.4728 106.744 42.4145 106.691 42.375L104.893 41.077C104.867 41.0569 104.837 41.0423 104.804 41.034C104.772 41.0258 104.739 41.024 104.706 41.0289C104.673 41.0339 104.641 41.0453 104.613 41.0626C104.584 41.0799 104.559 41.1027 104.54 41.1297C104.52 41.1567 104.506 41.1873 104.499 41.2197C104.491 41.2522 104.49 41.2858 104.496 41.3186C104.502 41.3514 104.514 41.3828 104.532 41.4108C104.55 41.4389 104.573 41.4631 104.6 41.482L106.398 42.78ZM97.3195 53.6095C97.4975 53.6546 97.6842 53.6527 97.8612 53.6039C98.0382 53.5551 98.1996 53.4611 98.3293 53.3312C98.4591 53.2013 98.5529 53.0399 98.6015 52.8628C98.6501 52.6857 98.6518 52.499 98.6065 52.321C98.5603 52.1371 98.465 51.9691 98.3309 51.835C98.1968 51.7009 98.0289 51.6057 97.845 51.5595C97.667 51.5143 97.4804 51.5162 97.3034 51.5648C97.1263 51.6134 96.965 51.7072 96.8351 51.837C96.7052 51.9667 96.6112 52.1279 96.5624 52.3049C96.5135 52.4819 96.5115 52.6685 96.5565 52.8465C96.6455 53.2165 96.9495 53.52 97.3195 53.6095ZM132.317 31.1015C132.371 31.1386 132.437 31.1532 132.501 31.1421C132.566 31.131 132.623 31.0952 132.661 31.0423C132.7 30.9893 132.716 30.9235 132.706 30.8589C132.697 30.7943 132.662 30.736 132.61 30.6965L130.811 29.3985C130.785 29.3784 130.755 29.3638 130.722 29.3555C130.69 29.3473 130.657 29.3455 130.624 29.3504C130.591 29.3554 130.559 29.3668 130.531 29.3841C130.502 29.4014 130.477 29.4242 130.458 29.4512C130.438 29.4782 130.424 29.5088 130.417 29.5412C130.409 29.5737 130.408 29.6073 130.414 29.6401C130.42 29.6729 130.432 29.7043 130.45 29.7323C130.468 29.7604 130.491 29.7846 130.518 29.8035L132.317 31.1015ZM124.984 43.2425C125.744 42.6124 126.572 42.0684 127.452 41.6205C127.509 41.5891 127.551 41.5369 127.571 41.4749C127.59 41.4129 127.584 41.3459 127.554 41.2881C127.525 41.2302 127.474 41.186 127.413 41.1648C127.352 41.1435 127.285 41.1468 127.226 41.174C126.313 41.6388 125.454 42.203 124.665 42.8565C124.614 42.8987 124.582 42.9596 124.576 43.0256C124.569 43.0917 124.589 43.1576 124.632 43.2088C124.674 43.2599 124.735 43.2923 124.801 43.2986C124.867 43.3049 124.933 43.2847 124.984 43.2425ZM146.109 37.1475C146.248 37.1474 146.385 37.12 146.513 37.0669C146.641 37.0137 146.758 36.9359 146.856 36.8377C146.954 36.7396 147.032 36.6231 147.085 36.4948C147.138 36.3666 147.165 36.2292 147.165 36.0905C147.165 35.9518 147.137 35.8144 147.084 35.6862C147.031 35.5581 146.953 35.4417 146.855 35.3436C146.757 35.2455 146.641 35.1678 146.512 35.1147C146.384 35.0617 146.247 35.0344 146.108 35.0345C145.828 35.0346 145.559 35.1461 145.361 35.3443C145.163 35.5425 145.052 35.8113 145.052 36.0915C145.052 36.3717 145.164 36.6404 145.362 36.8384C145.56 37.0365 145.829 37.1476 146.109 37.1475ZM164.987 87.8305C165.128 87.8335 165.268 87.8084 165.399 87.7566C165.53 87.7048 165.649 87.6275 165.749 87.529C165.85 87.4306 165.93 87.3131 165.984 87.1834C166.038 87.0537 166.067 86.9144 166.066 86.7738C166.066 86.6331 166.038 86.4938 165.984 86.3642C165.929 86.2345 165.849 86.1171 165.748 86.0188C165.648 85.9204 165.529 85.8432 165.398 85.7915C165.267 85.7399 165.127 85.7149 164.986 85.718C164.71 85.7241 164.448 85.8382 164.254 86.0357C164.061 86.2332 163.953 86.4985 163.953 86.7747C163.954 87.051 164.062 87.3162 164.255 87.5135C164.448 87.7108 164.711 87.8246 164.987 87.8305ZM63.706 93.59C63.7597 93.6289 63.8267 93.6448 63.8922 93.6342C63.9577 93.6237 64.0164 93.5875 64.0552 93.5338C64.0941 93.48 64.11 93.413 64.0994 93.3475C64.0889 93.282 64.0527 93.2234 63.999 93.1845L62.201 91.8865C62.1744 91.8664 62.1441 91.8518 62.1119 91.8435C62.0796 91.8353 62.046 91.8335 62.0131 91.8384C61.9801 91.8434 61.9485 91.8548 61.9201 91.8721C61.8916 91.8894 61.8669 91.9122 61.8474 91.9392C61.8278 91.9662 61.8139 91.9968 61.8064 92.0292C61.7989 92.0617 61.7979 92.0953 61.8035 92.1281C61.8092 92.1609 61.8213 92.1923 61.8393 92.2203C61.8572 92.2484 61.8806 92.2726 61.908 92.2915L63.706 93.59ZM56.2095 104.57C56.0316 104.525 55.8449 104.526 55.6679 104.575C55.4908 104.624 55.3294 104.717 55.1995 104.847C55.0696 104.977 54.9756 105.138 54.9268 105.315C54.878 105.492 54.876 105.679 54.921 105.857C55.01 106.227 55.3135 106.53 55.684 106.62C55.8619 106.665 56.0486 106.662 56.2255 106.614C56.4025 106.565 56.5637 106.471 56.6935 106.341C56.8232 106.211 56.9169 106.05 56.9655 105.873C57.014 105.696 57.0157 105.509 56.9705 105.331C56.9243 105.147 56.8292 104.979 56.6952 104.845C56.5612 104.711 56.3933 104.616 56.2095 104.57ZM74.072 84.0855C74.0719 83.8052 73.9605 83.5363 73.7622 83.3382C73.5639 83.14 73.295 83.0287 73.0147 83.0288C72.7344 83.0288 72.4655 83.1403 72.2674 83.3385C72.0692 83.5368 71.9579 83.8057 71.958 84.086C71.958 84.3663 72.0695 84.6352 72.2677 84.8333C72.3659 84.9315 72.4824 85.0093 72.6107 85.0624C72.7389 85.1155 72.8764 85.1428 73.0152 85.1428C73.154 85.1427 73.2915 85.1154 73.4197 85.0622C73.5479 85.0091 73.6644 84.9312 73.7626 84.833C73.8607 84.7348 73.9385 84.6183 73.9916 84.49C74.0447 84.3618 74.072 84.2243 74.072 84.0855ZM173.47 104.605C173.609 104.605 173.746 104.578 173.874 104.524C174.002 104.471 174.119 104.393 174.217 104.295C174.315 104.197 174.393 104.081 174.446 103.952C174.499 103.824 174.526 103.687 174.526 103.548C174.526 103.409 174.499 103.272 174.445 103.144C174.392 103.016 174.314 102.899 174.216 102.801C174.118 102.703 174.002 102.625 173.873 102.572C173.745 102.519 173.608 102.492 173.469 102.492C173.189 102.492 172.92 102.604 172.722 102.802C172.524 103 172.413 103.269 172.413 103.549C172.413 103.829 172.525 104.098 172.723 104.296C172.921 104.494 173.19 104.605 173.47 104.605ZM23.581 51.888C23.759 51.933 23.9456 51.9309 24.1226 51.8821C24.2995 51.8332 24.4608 51.7393 24.5905 51.6094C24.7202 51.4795 24.814 51.3181 24.8627 51.1411C24.9113 50.9641 24.9131 50.7774 24.868 50.5995C24.8217 50.4157 24.7265 50.2479 24.5925 50.1139C24.4585 49.9799 24.2907 49.8847 24.107 49.8385C23.9291 49.7932 23.7424 49.7949 23.5654 49.8435C23.3883 49.8921 23.2269 49.9858 23.097 50.1155C22.9671 50.2452 22.8731 50.4065 22.8243 50.5834C22.7755 50.7604 22.7735 50.947 22.8185 51.125C22.9075 51.495 23.211 51.7985 23.581 51.888ZM50.995 30.353C51.1337 30.3529 51.2711 30.3255 51.3992 30.2723C51.5274 30.2191 51.6438 30.1412 51.7418 30.043C51.8398 29.9449 51.9176 29.8283 51.9706 29.7001C52.0236 29.5719 52.0508 29.4345 52.0507 29.2958C52.0506 29.157 52.0232 29.0197 51.97 28.8915C51.9168 28.7634 51.8389 28.647 51.7407 28.5489C51.6426 28.4509 51.526 28.3731 51.3978 28.3201C51.2696 28.2671 51.1322 28.2399 50.9935 28.24C50.7133 28.2402 50.4446 28.3517 50.2466 28.55C50.0486 28.7483 49.9375 29.0171 49.9377 29.2973C49.9379 29.5775 50.0494 29.8461 50.2477 30.0441C50.446 30.2421 50.7148 30.3532 50.995 30.353ZM50.509 68.8435C51.2693 68.2134 52.097 67.6692 52.977 67.221C53.0062 67.2061 53.0322 67.1856 53.0535 67.1607C53.0748 67.1358 53.091 67.1069 53.1011 67.0758C53.1113 67.0446 53.1152 67.0117 53.1126 66.979C53.1101 66.9463 53.1011 66.9145 53.0862 66.8853C53.0713 66.856 53.0509 66.83 53.0259 66.8087C53.001 66.7874 52.9721 66.7712 52.941 66.7611C52.9098 66.7509 52.8769 66.747 52.8442 66.7496C52.8115 66.7522 52.7797 66.7611 52.7505 66.776C51.8374 67.2405 50.9787 67.8048 50.19 68.4585C50.1395 68.501 50.1078 68.5617 50.1019 68.6274C50.096 68.6931 50.1163 68.7585 50.1584 68.8093C50.2005 68.8601 50.261 68.8922 50.3266 68.8986C50.3923 68.905 50.4578 68.8852 50.509 68.8435ZM174.685 77.1505C175.114 76.795 175.565 76.4663 176.035 76.1665C176.064 76.1494 176.089 76.1267 176.109 76.0997C176.129 76.0728 176.143 76.0421 176.151 76.0095C176.158 75.9769 176.159 75.9431 176.154 75.9101C176.148 75.8771 176.136 75.8455 176.118 75.8172C176.1 75.789 176.077 75.7646 176.049 75.7457C176.022 75.7267 175.99 75.7134 175.958 75.7067C175.925 75.6999 175.891 75.6998 175.858 75.7064C175.825 75.713 175.794 75.7261 175.766 75.745C175.279 76.0562 174.812 76.3968 174.366 76.765C174.315 76.8072 174.283 76.8681 174.277 76.9341C174.271 77.0001 174.291 77.0659 174.333 77.117C174.375 77.1681 174.436 77.2004 174.502 77.2067C174.568 77.2129 174.634 77.1927 174.685 77.1505ZM169.671 60.435C169.725 60.4739 169.792 60.4898 169.857 60.4792C169.923 60.4687 169.981 60.4325 170.02 60.3788C170.059 60.325 170.075 60.258 170.064 60.1925C170.054 60.127 170.018 60.0684 169.964 60.0295L168.166 58.731C168.139 58.7109 168.109 58.6963 168.077 58.688C168.045 58.6798 168.011 58.678 167.978 58.6829C167.945 58.6879 167.914 58.6993 167.885 58.7166C167.857 58.7339 167.832 58.7567 167.812 58.7837C167.793 58.8107 167.779 58.8413 167.771 58.8737C167.764 58.9062 167.763 58.9398 167.769 58.9726C167.774 59.0054 167.786 59.0368 167.804 59.0648C167.822 59.0929 167.846 59.1171 167.873 59.136L169.671 60.435ZM159.259 72.541C159.28 72.5664 159.306 72.5875 159.335 72.603C159.364 72.6184 159.395 72.628 159.428 72.6312C159.461 72.6343 159.494 72.631 159.525 72.6214C159.557 72.6117 159.586 72.596 159.611 72.575C160.372 71.9449 161.2 71.4009 162.08 70.953C162.137 70.9216 162.179 70.8694 162.198 70.8074C162.217 70.7454 162.211 70.6784 162.182 70.6206C162.153 70.5627 162.102 70.5185 162.041 70.4973C161.979 70.476 161.912 70.4793 161.853 70.5065C160.941 70.9713 160.082 71.5355 159.293 72.189C159.268 72.2099 159.247 72.2355 159.231 72.2645C159.216 72.2935 159.206 72.3253 159.203 72.358C159.2 72.3907 159.203 72.4236 159.213 72.455C159.222 72.4865 159.238 72.5157 159.259 72.541ZM92.5685 38.2035C92.836 38.3975 93.1295 37.991 92.8615 37.7985L91.0635 36.4995C91.0369 36.4794 91.0066 36.4648 90.9744 36.4565C90.9421 36.4483 90.9085 36.4465 90.8756 36.4514C90.8426 36.4564 90.811 36.4678 90.7826 36.4851C90.7541 36.5024 90.7294 36.5252 90.7099 36.5522C90.6903 36.5792 90.6764 36.6098 90.6689 36.6422C90.6614 36.6747 90.6604 36.7083 90.666 36.7411C90.6717 36.7739 90.6838 36.8053 90.7018 36.8333C90.7197 36.8614 90.743 36.8856 90.7705 36.9045L92.5685 38.2035ZM35.685 35.3C35.7387 35.3371 35.8049 35.3517 35.8693 35.3406C35.9337 35.3295 35.9912 35.2937 36.0295 35.2408C36.0678 35.1878 36.0838 35.122 36.0742 35.0574C36.0646 34.9928 36.03 34.9345 35.978 34.895L34.18 33.5965C34.1534 33.5764 34.1231 33.5618 34.0909 33.5535C34.0586 33.5453 34.025 33.5435 33.9921 33.5484C33.9591 33.5534 33.9275 33.5648 33.8991 33.5821C33.8706 33.5994 33.8459 33.6222 33.8264 33.6492C33.8068 33.6762 33.7929 33.7068 33.7854 33.7392C33.7779 33.7717 33.7769 33.8053 33.7825 33.8381C33.7882 33.8709 33.8003 33.9023 33.8183 33.9303C33.8362 33.9584 33.8596 33.9826 33.887 34.0015L35.685 35.3Z" fill="black"/>
</svg>